<svg id="レイヤー_1" data-name="レイヤー 1" xmlns="http://www.w3.org/2000/svg" viewBox="0 0 935.433 779.528"><defs><style>.cls-1{fill:#f0e7e3;}</style></defs><path class="cls-1" d="M924.557,251.471v-.048c0-.65-.01-1.3-.023-1.947v-.012c-.007-.369-.017-.738-.028-1.107v-.012c-.007-.23-.016-.459-.024-.689v-.029l0-.033q-.033-.862-.079-1.723c-.014-.264-.03-.527-.046-.791s-.035-.556-.055-.834c-.108-1.592-.257-3.181-.436-4.767a105.817,105.817,0,0,0-2.277-14.916l-.106-.4c-.015-.053-.028-.106-.042-.158a106.761,106.761,0,0,0-9.465-23.551l-.092-.168q-.54-.984-1.1-1.956l-.094-.162-.067-.114c-.032-.055-.063-.11-.1-.164q-.457-.783-.928-1.559l-.181-.3c-.036-.059-.071-.118-.107-.176s-.054-.09-.082-.135q-.5-.807-1.009-1.6l-.105-.162c-.11-.172-.222-.342-.333-.513l-.14-.216c-.208-.319-.42-.636-.632-.953-.04-.06-.081-.118-.121-.178q-.349-.519-.706-1.036c-.042-.06-.082-.121-.124-.182-.228-.328-.456-.656-.687-.982l-.119-.165q-.2-.285-.408-.568l-.138-.192q-.357-.49-.72-.977c-.05-.068-.1-.135-.152-.2-.173-.231-.345-.461-.519-.69l-.111-.148q-.5-.657-1.012-1.306c-.043-.055-.087-.11-.131-.164l-.234-.3-.134-.168c-.258-.323-.523-.64-.785-.96-.222-.27-.439-.543-.664-.811q-.8-.956-1.62-1.9l-.026-.029a105.761,105.761,0,0,0-48.085-31.289l-.618-.189c-.285-.088-.568-.178-.855-.263l-.231-.068-.139-.041-.226-.067c-.294-.085-.588-.17-.884-.253l-.22-.061c-.2-.057-.407-.114-.611-.169l-.23-.064c-.092-.025-.182-.052-.274-.076-.058-.016-.115-.029-.173-.044s-.092-.023-.138-.035q-2.333-.619-4.677-1.128l-.14-.032-.359-.078-.128-.025c-.71-.15-1.42-.295-2.131-.429l-.089-.018c-.215-.041-.43-.078-.646-.117l-.3-.052q-.511-.092-1.021-.179l-.165-.029c-.394-.066-.788-.132-1.183-.194l-.093-.013c-.361-.057-.723-.106-1.084-.158-.2-.03-.407-.061-.611-.089a105.718,105.718,0,0,0-14.451-1.018h-.6c-.236,0-.471.006-.707.008l-.5,0c-.345.005-.69.005-1.034.013l-.192,0a106.648,106.648,0,0,0-25.12,3.575l-.158.043-.4.107c-1.663.485-3.533,1.121-5.56,1.89A106.758,106.758,0,0,0,771.961,156q-.375.183-.75.369l-.708.356q-.768.39-1.531.793l-.029.015-.026.014c-.2.107-.406.214-.609.323l-.01,0c-.325.176-.65.351-.973.53l-.01.006q-.852.468-1.7.953l-.043.023-.055.032-.009,0h0l-.141.083-.354.2,0,0-.115.07-.311.189q-2.689,1.59-5.286,3.333c-10.278,6.183-20.488,13.747-27.671,21.815l.031.168a99.971,99.971,0,0,0-13.539,18.147c-7.032,11.964-17.991,22.976-32.064,31.1s-29.086,12.116-42.959,12.226a97,97,0,0,0-28.586,4.347c-.148.047-.3.1-.443.145l-.3.1a123.041,123.041,0,0,0-18.411,7.342l-.353.162-.628.292-.748.352c-.262.123-.521.246-.779.37l-.765.366-.518.25-.86.419-.433.213c-.325.161-.645.319-.962.478l-.358.179c-.358.179-.712.357-1.059.534l-.035.018q-2.857,1.394-5.624,2.96l-.319.175-.118.064,0,0-.354.2-.143.081h0l-.009,0-.054.031-.042.025q-.842.489-1.673.994l-.01.006q-.474.285-.945.577l-.01.007q-.292.181-.584.366l-.025.015-.028.018q-.729.459-1.451.93c-.222.144-.442.29-.662.435s-.464.309-.695.465a106.763,106.763,0,0,0-14.1,11.324c-.478.431-.934.852-1.361,1.26l-.29.291-.117.115a106.423,106.423,0,0,0-9.21,10.556q-.309.4-.614.809c-.261.348-.523.7-.779,1.047q-.741,1.011-1.457,2.041c-.112.161-.222.323-.333.484q-1.677,2.438-3.225,4.98l-.037.059-.1.164-.058.1q-.424.7-.839,1.416c-.082.139-.166.277-.247.416-.031.054-.062.108-.092.162l-.066.115-.081.141c-.077.135-.151.272-.228.408-.225.4-.45.8-.671,1.2l-.168.307-.1.18c-.025.046-.051.092-.076.139q-.45.832-.884,1.676c-.03.057-.058.115-.088.172q-.139.272-.278.545c-.039.076-.078.152-.116.229q-.258.51-.509,1.024c-.032.064-.062.129-.094.194q-.274.563-.543,1.13c-.032.066-.065.132-.1.2-.17.361-.34.723-.507,1.086l-.083.186q-.145.318-.288.637l-.1.216c-.165.37-.326.741-.486,1.112-.034.078-.066.156-.1.234-.113.264-.226.528-.337.794-.024.057-.049.113-.073.17q-.318.764-.625,1.53c-.025.065-.051.13-.077.195l-.138.351-.078.2c-.151.385-.293.774-.439,1.161-.123.327-.25.652-.37.98q-.428,1.17-.83,2.351l-.013.037a105.881,105.881,0,0,0-5.617,32.866l0,.209c0,.351,0,.7,0,1.054s0,.7,0,1.054l0,.209a105.881,105.881,0,0,0,5.617,32.866l.013.037q.4,1.18.83,2.351c.12.328.247.653.37.98.146.387.288.776.439,1.161l.078.2.138.35c.026.065.052.13.077.195q.307.768.625,1.53c.024.057.049.113.073.17.111.266.224.53.337.794.034.078.066.156.1.234.16.372.321.743.486,1.112l.1.216q.143.319.288.637l.083.186c.167.363.337.725.507,1.086.031.067.064.132.1.2q.269.567.543,1.13c.032.064.062.129.094.193q.252.513.509,1.025c.038.076.077.152.116.228q.138.273.278.545c.03.057.058.115.088.172q.435.843.884,1.677l.076.138.1.18.168.307c.221.4.446.8.671,1.2.077.136.151.273.228.408l.081.141.066.115c.03.054.061.108.092.162.081.139.165.277.247.416q.414.711.839,1.416c.02.032.039.066.058.1l.1.164.037.059q1.548,2.543,3.225,4.98c.111.161.221.323.333.484q.717,1.029,1.457,2.041c.256.351.518.7.779,1.047q.306.406.614.809a106.423,106.423,0,0,0,9.21,10.556l.117.115.29.291c.427.408.883.829,1.361,1.26a106.763,106.763,0,0,0,14.1,11.324c.231.156.462.311.695.465s.44.291.662.435q.721.471,1.451.93l.028.018.025.015q.291.185.584.366l.01.007q.471.291.945.578l.01.006q.833.5,1.673.993l.042.025.054.032.009,0h0l.143.081.354.2,0,0,.118.064.319.175q2.769,1.561,5.624,2.96l.035.018c.347.177.7.355,1.059.534l.358.179q.476.238.962.478l.433.213.86.419.518.25.765.367c.258.123.517.246.779.369l.748.352.628.292.353.162a123.041,123.041,0,0,0,18.411,7.342l.3.1c.148.047.295.1.443.145a97,97,0,0,0,28.586,4.347c13.873.11,28.886,4.1,42.959,12.226s25.032,19.142,32.064,31.1a99.9,99.9,0,0,0,13.539,18.147l-.031.169c7.183,8.068,17.394,15.632,27.673,21.815q2.592,1.746,5.284,3.332l.311.189.115.07,0,0,.354.2.141.083h0l.009,0,.055.032.043.023q.843.486,1.7.953l.01.006q.485.269.973.53l.01,0c.2.109.406.216.609.323l.026.014.029.015q.764.4,1.531.793c.236.12.472.238.708.356l.75.369a106.589,106.589,0,0,0,12.61,5.209c2.026.769,3.9,1.405,5.56,1.89l.4.107.158.043a106.648,106.648,0,0,0,25.12,3.575l.192,0c.344.007.689.007,1.034.011.167,0,.335,0,.5.006.236,0,.471.009.707.008h.6a105.875,105.875,0,0,0,14.451-1.017c.2-.029.407-.06.611-.09.361-.052.723-.1,1.084-.157l.093-.014c.395-.062.789-.128,1.183-.194l.165-.029q.51-.087,1.021-.179l.3-.052c.216-.039.431-.076.646-.117.03,0,.059-.012.089-.018.711-.134,1.421-.279,2.131-.428.043-.01.085-.017.128-.026l.359-.078.14-.032q2.345-.508,4.677-1.127l.138-.036c.058-.015.115-.028.173-.044.092-.024.182-.051.274-.076s.153-.042.23-.063l.611-.17.22-.061c.3-.083.59-.168.884-.253l.226-.067.139-.041.231-.068c.287-.085.57-.175.855-.263l.618-.189A105.761,105.761,0,0,0,898.6,534.552l.026-.029q.822-.939,1.62-1.895c.225-.268.442-.541.664-.811.262-.32.527-.637.785-.96l.134-.168.234-.295c.044-.054.088-.109.131-.164q.511-.649,1.012-1.306l.111-.148c.174-.229.346-.459.519-.69.05-.067.1-.135.152-.2q.363-.486.72-.977l.138-.192q.206-.284.408-.568l.119-.165c.231-.326.459-.654.687-.982.042-.061.082-.122.124-.182q.356-.518.706-1.036c.04-.06.081-.118.121-.178.212-.316.424-.634.632-.953l.14-.216c.111-.17.223-.341.333-.513l.105-.162q.511-.8,1.009-1.6c.028-.045.055-.09.082-.135s.071-.117.107-.176l.181-.3q.471-.775.928-1.559c.032-.054.063-.109.1-.164l.067-.114c.031-.054.063-.107.094-.162q.561-.971,1.1-1.956l.092-.168a106.761,106.761,0,0,0,9.465-23.551c.014-.052.027-.1.042-.158l.106-.4a105.793,105.793,0,0,0,2.277-14.916c.179-1.586.328-3.175.436-4.767q.03-.417.055-.834c.016-.264.032-.527.046-.791q.046-.861.079-1.723l0-.033v-.029c.008-.23.017-.459.024-.689v-.012c.011-.369.021-.738.028-1.107V466.4c.013-.649.022-1.3.023-1.946v-.124h0c0-.054,0-.109,0-.164v-.411l0-.135c0-.121-.006-.242-.008-.364,0-.079,0-.158,0-.238.18-13.57-1.134-28.622-5.062-40.5l-.284-.1a99.847,99.847,0,0,0-9.043-21.151c-6.841-12.074-10.9-27.074-10.9-43.331s4.055-31.257,10.9-43.331a99.847,99.847,0,0,0,9.043-21.151l.284-.1c3.928-11.874,5.242-26.925,5.062-40.5,0-.079,0-.159,0-.238,0-.122,0-.243.008-.364l0-.135v-.411c0-.055,0-.109,0-.164h0v-.075Z"/><path class="cls-1" d="M402.411,254.813v-.048q0-.973-.023-1.946v-.012q-.012-.554-.028-1.107v-.013c-.007-.229-.016-.459-.025-.689v-.062q-.033-.861-.08-1.722-.021-.4-.045-.792c-.017-.278-.036-.556-.055-.834q-.163-2.388-.437-4.767a105.711,105.711,0,0,0-2.276-14.916l-.107-.4c-.014-.053-.027-.106-.041-.159a106.8,106.8,0,0,0-9.466-23.551l-.091-.168c-.361-.655-.725-1.309-1.1-1.956l-.093-.162-.067-.114-.1-.164q-.458-.783-.927-1.559l-.182-.3-.106-.176c-.028-.044-.055-.09-.082-.135-.331-.537-.669-1.072-1.009-1.6-.035-.054-.071-.108-.105-.162-.111-.172-.222-.342-.333-.513l-.14-.216q-.313-.478-.632-.953l-.121-.177q-.351-.521-.707-1.036c-.041-.061-.082-.122-.124-.182q-.341-.494-.686-.983l-.119-.165c-.135-.189-.272-.379-.408-.568-.047-.063-.092-.128-.139-.192-.237-.327-.478-.652-.719-.977l-.153-.2q-.258-.345-.518-.689c-.038-.05-.074-.1-.112-.148q-.5-.658-1.012-1.307l-.13-.164-.234-.295-.134-.168c-.258-.323-.523-.64-.785-.96-.222-.27-.44-.543-.664-.811q-.8-.956-1.62-1.9l-.026-.029a105.764,105.764,0,0,0-48.085-31.288c-.206-.065-.412-.126-.618-.19-.285-.087-.569-.177-.855-.263l-.231-.068-.14-.041-.225-.067c-.294-.085-.589-.17-.884-.253l-.22-.061-.612-.169-.229-.064-.274-.076-.173-.044-.139-.035q-2.331-.62-4.676-1.128l-.14-.032-.36-.077-.127-.026q-1.065-.225-2.132-.429l-.088-.018c-.215-.041-.431-.077-.646-.117l-.3-.052q-.51-.091-1.021-.179l-.164-.028q-.591-.1-1.183-.194l-.093-.014c-.362-.057-.723-.1-1.085-.158-.2-.029-.407-.061-.611-.089a105.7,105.7,0,0,0-14.451-1.018h-.6c-.235,0-.471.006-.706.008-.168,0-.335,0-.5.006-.345,0-.69,0-1.035.012l-.191,0a106.663,106.663,0,0,0-25.121,3.575l-.158.044-.4.106c-1.663.486-3.533,1.121-5.559,1.89a106.842,106.842,0,0,0-12.611,5.209q-.375.183-.749.37c-.236.118-.473.236-.708.356q-.768.39-1.531.792l-.03.015-.025.014c-.2.107-.406.214-.609.323l-.011.006c-.324.175-.649.351-.972.529l-.011.006q-.852.469-1.7.953l-.042.024-.055.031-.009,0h0c-.047.028-.094.056-.142.083l-.353.205h0l-.115.07-.31.189q-2.691,1.592-5.287,3.333c-10.278,6.184-20.488,13.747-27.67,21.815l.03.169a100.023,100.023,0,0,0-13.539,18.146c-7.031,11.964-17.99,22.977-32.063,31.105S134.826,250,120.954,250.108a96.974,96.974,0,0,0-28.587,4.348c-.148.046-.3.1-.442.145-.1.031-.2.064-.3.1a123.148,123.148,0,0,0-18.411,7.342l-.353.163q-.317.145-.628.292l-.748.351-.779.37-.765.366-.518.25-.86.42-.434.213-.962.477-.358.179-1.058.534-.035.018q-2.858,1.395-5.624,2.961l-.319.174-.118.065h0l-.353.2-.143.081h0l-.009,0-.054.032-.042.025q-.841.488-1.673.993l-.011.006q-.474.286-.944.578l-.01.006c-.2.121-.39.244-.584.366l-.025.015-.028.018q-.729.461-1.452.931c-.221.144-.441.289-.662.435s-.464.309-.694.464a106.69,106.69,0,0,0-14.1,11.325c-.478.43-.935.852-1.361,1.26l-.291.29-.116.116a106.068,106.068,0,0,0-9.21,10.556q-.309.4-.614.808c-.261.349-.523.7-.78,1.047q-.739,1.011-1.456,2.042c-.112.161-.222.322-.333.484q-1.677,2.436-3.225,4.979l-.037.06c-.034.054-.067.108-.1.163-.02.033-.039.066-.058.1q-.426.7-.84,1.416c-.081.139-.166.276-.246.415l-.093.163-.065.115-.081.14c-.077.136-.152.272-.228.408-.226.4-.451.8-.671,1.2-.056.1-.112.2-.169.307-.032.06-.066.12-.1.18l-.076.139q-.45.834-.885,1.676l-.087.172c-.094.181-.186.363-.278.545l-.117.229q-.258.51-.509,1.025c-.031.064-.061.129-.093.193q-.274.563-.544,1.13c-.031.066-.064.132-.1.2-.171.361-.341.723-.507,1.087-.029.061-.056.123-.084.185q-.144.318-.287.638c-.032.072-.065.143-.1.215-.165.37-.326.741-.487,1.112l-.1.234q-.169.4-.338.794l-.072.171q-.318.762-.625,1.529c-.026.065-.051.131-.077.195l-.138.351c-.026.066-.053.133-.079.2-.15.385-.292.773-.438,1.16-.123.327-.25.652-.37.98q-.428,1.172-.831,2.351l-.012.038A105.87,105.87,0,0,0,5.96,360.018c0,.07,0,.14,0,.209,0,.351,0,.7,0,1.054s0,.7,0,1.054c0,.07,0,.14,0,.209a105.876,105.876,0,0,0,5.617,32.866l.012.037q.4,1.182.831,2.351c.12.329.247.654.37.981.146.386.288.775.438,1.16.026.067.053.133.079.2l.138.35c.026.065.051.131.077.2q.306.768.625,1.53l.072.171c.112.265.225.529.338.794.033.077.066.156.1.234.161.371.322.742.487,1.111.032.073.065.144.1.216q.143.319.287.638c.028.062.055.123.084.185.166.364.336.725.507,1.086.031.067.064.133.1.2q.27.567.544,1.13c.032.064.062.129.093.193q.252.513.509,1.025l.117.229c.092.181.184.363.278.544l.087.173q.437.841.885,1.676c.025.046.051.092.076.139s.066.12.1.18c.057.1.113.2.169.306.22.4.445.8.671,1.2.076.135.151.272.228.407l.081.141.065.115.093.162c.08.14.165.277.246.416q.416.712.84,1.416c.019.033.038.066.058.1.033.054.066.109.1.163l.037.059q1.546,2.543,3.225,4.98c.111.161.221.323.333.484q.717,1.031,1.456,2.041c.257.352.519.7.78,1.047q.3.407.614.809a106.18,106.18,0,0,0,9.21,10.556c.038.039.077.077.116.115l.291.291c.426.408.883.83,1.361,1.26a106.682,106.682,0,0,0,14.1,11.324c.23.156.462.311.694.465s.441.291.662.435q.723.471,1.452.931l.028.018.025.015c.194.122.388.245.584.366l.01.006q.471.291.944.578l.011.006q.831.5,1.673.993l.042.025.054.032.009,0h0c.047.028.1.054.143.081l.353.2h0l.118.065.319.174q2.768,1.561,5.624,2.961l.035.018,1.058.534.358.179.962.477.434.213.86.419.518.251.765.366q.386.185.779.369.372.177.748.352c.208.1.417.195.628.292l.353.163a123.255,123.255,0,0,0,18.411,7.342c.1.031.2.064.3.1.147.048.294.1.442.145a96.941,96.941,0,0,0,28.587,4.347c13.872.11,28.886,4.1,42.959,12.226s25.032,19.142,32.063,31.106a99.981,99.981,0,0,0,13.54,18.146l-.031.169c7.183,8.068,17.394,15.632,27.672,21.816q2.593,1.745,5.285,3.331l.31.19.115.07h0l.353.2.142.083h0l.009,0,.055.031.042.024q.844.485,1.7.953l.011.006c.323.178.648.354.972.529l.011.006.609.323.025.013.03.015q.762.4,1.531.793c.235.12.472.238.708.356s.5.248.749.37a106.9,106.9,0,0,0,12.61,5.209c2.027.768,3.9,1.4,5.56,1.89l.4.106.158.043a106.663,106.663,0,0,0,25.121,3.575l.191,0c.345.007.69.007,1.035.012l.5.006c.235,0,.471.008.706.008h.6a106.014,106.014,0,0,0,14.451-1.018c.2-.028.408-.06.611-.089.362-.053.723-.1,1.085-.158l.093-.014q.591-.093,1.183-.194l.164-.029c.341-.057.681-.118,1.021-.179l.3-.052c.215-.039.431-.076.646-.116l.088-.018c.711-.135,1.422-.28,2.132-.429l.127-.026.36-.077.14-.032q2.345-.51,4.676-1.128l.139-.035c.057-.016.115-.029.173-.044l.274-.076.229-.064c.2-.056.408-.112.612-.17l.22-.06c.3-.084.59-.168.884-.254l.225-.066.14-.041.231-.069c.286-.085.57-.175.855-.262.206-.064.412-.125.618-.19A105.764,105.764,0,0,0,376.451,537.9l.026-.03q.822-.937,1.62-1.895c.224-.268.442-.54.664-.811.262-.319.527-.637.785-.959.045-.056.089-.113.134-.168l.234-.3.13-.165q.512-.648,1.012-1.306c.038-.049.074-.1.112-.148q.261-.344.518-.689l.153-.2c.241-.325.482-.65.719-.977.047-.064.092-.129.139-.193.136-.189.273-.378.408-.567.039-.056.079-.11.119-.166.231-.325.459-.654.686-.982.042-.06.083-.122.124-.182q.357-.516.707-1.036l.121-.177q.318-.476.632-.954c.047-.071.093-.143.14-.215l.333-.513c.034-.054.07-.108.105-.162.34-.532.678-1.067,1.009-1.6.027-.045.054-.091.082-.136l.106-.175.182-.3q.469-.775.927-1.558l.1-.164.067-.115.093-.161c.375-.648.739-1.3,1.1-1.956l.091-.168a106.8,106.8,0,0,0,9.466-23.551c.014-.053.027-.106.041-.159l.107-.4a105.711,105.711,0,0,0,2.276-14.916q.27-2.381.437-4.767c.019-.278.038-.556.055-.835q.024-.394.045-.791.046-.861.08-1.723v-.062c.009-.229.018-.459.025-.689v-.012q.016-.553.028-1.107v-.012q.02-.972.023-1.946v-.122h0v0c0-.054,0-.109,0-.164V467.1l0-.135q0-.18-.009-.363c0-.08,0-.159,0-.238.181-13.571-1.133-28.622-5.061-40.5l-.284-.1a99.88,99.88,0,0,0-9.044-21.152c-6.841-12.073-10.895-27.074-10.895-43.331s4.054-31.257,10.895-43.331A99.8,99.8,0,0,0,397.05,296.8l.284-.1c3.928-11.874,5.242-26.925,5.061-40.5,0-.079,0-.158,0-.238l.009-.364,0-.134v-.412c0-.054,0-.109,0-.164h0v-.074Z"/><path class="cls-1" d="M660.884,642.869q0-.975-.024-1.947v-.012c-.007-.369-.017-.738-.027-1.107v-.012c-.007-.23-.016-.459-.025-.689v-.062q-.033-.862-.08-1.723c-.014-.264-.029-.527-.045-.791s-.036-.556-.055-.834q-.164-2.388-.437-4.767a105.5,105.5,0,0,0-2.277-14.916l-.106-.4c-.014-.054-.027-.107-.041-.159A106.764,106.764,0,0,0,648.3,591.9l-.091-.168c-.361-.656-.725-1.309-1.1-1.957l-.094-.161-.066-.114-.1-.164q-.457-.783-.928-1.559l-.181-.3-.106-.176c-.028-.045-.055-.09-.082-.135-.331-.538-.669-1.072-1.009-1.6-.035-.054-.071-.108-.1-.162l-.333-.513-.14-.216c-.209-.319-.421-.636-.632-.953-.04-.06-.081-.118-.122-.178q-.349-.519-.706-1.036l-.124-.182c-.227-.328-.455-.656-.687-.982l-.118-.165-.408-.568-.139-.192c-.237-.327-.478-.653-.719-.977l-.153-.2c-.172-.23-.344-.461-.518-.69-.038-.049-.074-.1-.112-.148q-.5-.657-1.012-1.306l-.13-.164c-.078-.1-.156-.2-.235-.295l-.133-.168c-.258-.323-.524-.64-.785-.96-.222-.27-.44-.543-.664-.811q-.8-.956-1.62-1.895l-.026-.029a105.769,105.769,0,0,0-48.086-31.289c-.2-.064-.411-.126-.617-.189-.285-.088-.569-.178-.855-.263l-.232-.068-.139-.041-.225-.067c-.294-.085-.589-.17-.884-.253l-.22-.061-.612-.17-.229-.063c-.092-.025-.183-.052-.274-.076-.058-.016-.116-.029-.173-.044s-.093-.023-.139-.035q-2.331-.62-4.677-1.128l-.139-.032-.36-.078-.128-.026c-.709-.149-1.42-.294-2.131-.428l-.088-.018c-.215-.041-.431-.078-.646-.117l-.3-.052q-.51-.092-1.021-.179l-.165-.029c-.394-.066-.788-.132-1.182-.193l-.093-.015c-.362-.056-.723-.1-1.085-.158l-.611-.089a105.875,105.875,0,0,0-14.451-1.017l-.088,0h-.509c-.235,0-.471.006-.707.008l-.5,0c-.345,0-.69,0-1.035.012l-.191,0a106.648,106.648,0,0,0-25.121,3.575l-.158.043-.4.107c-1.663.486-3.533,1.121-5.559,1.89a106.5,106.5,0,0,0-12.611,5.209q-.375.183-.749.369-.355.177-.708.356-.77.39-1.531.793l-.03.015-.025.014c-.2.107-.407.214-.609.323l-.011,0c-.325.176-.649.351-.972.53l-.011.006q-.852.468-1.7.953l-.043.023-.054.032-.009,0h0c-.048.027-.094.056-.142.083l-.354.2,0,0-.115.07-.311.189q-2.69,1.59-5.286,3.333c-10.278,6.183-20.488,13.747-27.67,21.815l.03.168a100.018,100.018,0,0,0-13.539,18.147c-7.031,11.963-17.99,22.976-32.063,31.105S393.3,638.1,379.427,638.212a96.974,96.974,0,0,0-28.587,4.348c-.148.046-.295.1-.442.144l-.3.1a122.956,122.956,0,0,0-18.411,7.342l-.353.162-.628.292-.748.352c-.262.123-.522.247-.78.37s-.512.244-.764.366l-.518.25c-.29.14-.576.28-.861.419l-.433.213c-.325.161-.645.319-.962.478l-.358.179c-.358.179-.712.358-1.059.534l-.035.018q-2.856,1.394-5.623,2.96l-.319.175-.119.064,0,0-.354.2-.142.081h0l-.008.006-.055.031-.042.025q-.841.489-1.673.994l-.01,0q-.474.287-.944.578l-.011.007c-.195.121-.389.243-.584.366l-.024.015-.028.018q-.73.459-1.452.93c-.222.144-.442.29-.662.436s-.464.308-.695.464a106.689,106.689,0,0,0-14.1,11.324c-.479.431-.935.852-1.362,1.26l-.29.291-.117.115a106.283,106.283,0,0,0-9.209,10.556q-.309.4-.615.809c-.26.349-.522.7-.779,1.047q-.74,1.011-1.457,2.042c-.111.16-.222.322-.332.484q-1.678,2.436-3.225,4.979c-.013.02-.026.039-.038.059l-.1.164c-.02.033-.039.066-.059.1q-.424.705-.839,1.416c-.081.14-.166.277-.246.416l-.093.163-.066.114c-.027.047-.054.094-.08.141-.077.135-.152.272-.229.408-.225.4-.45.8-.67,1.2-.057.1-.113.205-.169.307l-.1.18c-.025.046-.051.092-.076.139q-.45.834-.884,1.676c-.03.057-.058.115-.088.172q-.139.272-.277.545c-.039.076-.079.152-.117.229q-.258.51-.509,1.024l-.093.194q-.276.563-.544,1.13c-.031.066-.064.132-.1.2-.17.361-.34.723-.507,1.086l-.083.186c-.1.212-.192.424-.287.637-.033.072-.066.144-.1.216q-.246.555-.486,1.112c-.034.078-.066.156-.1.234-.114.264-.227.528-.338.794-.024.057-.049.113-.073.17q-.318.764-.624,1.53c-.026.065-.052.13-.077.2q-.071.175-.138.351l-.079.2c-.151.385-.292.774-.438,1.161-.123.327-.251.652-.37.98q-.429,1.17-.831,2.351l-.013.037a105.881,105.881,0,0,0-5.617,32.866l0,.209c0,.351,0,.7,0,1.054s0,.7,0,1.054l0,.209a105.884,105.884,0,0,0,4.352,28.88H640.556a92.041,92.041,0,0,1-4.972-30.143c0-16.256,4.054-31.257,10.9-43.331a99.8,99.8,0,0,0,9.044-21.151l.284-.1c3.928-11.874,5.242-26.926,5.061-40.5,0-.079,0-.159,0-.238,0-.122.006-.243.008-.364l0-.135v-.411c0-.054,0-.109,0-.164h0v-.123Z"/><path class="cls-1" d="M270.05,3.987l.013.037q.4,1.18.83,2.351c.12.328.247.653.37.98.146.387.288.776.438,1.161.026.066.053.133.079.2l.138.35.077.195q.306.768.625,1.53c.024.057.049.114.072.17.112.266.225.53.338.8.034.077.066.155.1.233.161.372.322.743.487,1.112l.1.216c.095.213.191.425.287.638l.084.185c.166.363.337.725.507,1.086.031.067.064.132.095.2q.27.565.544,1.13c.032.064.062.129.093.193q.252.513.509,1.025l.117.228c.092.182.184.364.278.545.029.057.058.115.088.172q.435.843.884,1.677l.076.138c.032.06.066.12.1.18.057.1.113.2.169.307.22.4.445.8.671,1.2.076.136.151.273.228.408l.081.141c.022.038.043.077.066.115.03.054.061.108.092.162.081.139.165.277.246.416q.416.711.84,1.416c.02.033.038.066.058.1l.1.164.037.059q1.547,2.543,3.225,4.98c.111.161.221.323.333.484q.717,1.029,1.456,2.041c.257.351.519.7.78,1.047q.306.407.614.809a106.294,106.294,0,0,0,9.21,10.556c.038.038.078.076.116.115l.291.291c.426.408.883.829,1.361,1.26a106.819,106.819,0,0,0,14.1,11.324q.346.234.695.465c.221.145.441.291.663.435q.721.471,1.451.93l.028.018.025.015c.194.123.388.245.584.366l.01.007q.471.291.944.578l.011.006q.831.5,1.673.993l.041.025.055.032.009,0h0l.143.081.353.2,0,0,.118.064.319.175q2.767,1.562,5.623,2.96l.036.018c.347.177.7.355,1.058.534l.358.179q.476.239.963.478l.433.213.86.419.518.25.765.367c.258.123.517.246.779.369l.748.352.628.292.353.162A123.041,123.041,0,0,0,350.1,76.442l.3.1c.148.047.294.1.442.145a97.006,97.006,0,0,0,28.587,4.347c13.873.11,28.886,4.1,42.959,12.226s25.032,19.142,32.064,31.1a99.9,99.9,0,0,0,13.539,18.147l-.031.169c7.183,8.068,17.394,15.632,27.672,21.815q2.593,1.746,5.285,3.332l.31.189.115.07,0,0,.353.2c.048.027.095.056.142.083h0l.009,0,.055.032.042.023q.844.486,1.7.953l.01.006c.323.179.648.355.972.53l.011,0c.2.109.406.216.609.323l.025.014.03.015q.762.4,1.531.793l.708.356q.374.186.75.369a106.644,106.644,0,0,0,12.609,5.209c2.027.769,3.9,1.405,5.56,1.89l.4.107.159.043a106.648,106.648,0,0,0,25.12,3.575l.191,0c.345.007.69.007,1.035.011.167,0,.334,0,.5.006.235,0,.471.009.706.008h.6a105.878,105.878,0,0,0,14.452-1.017l.611-.09c.361-.052.722-.1,1.084-.157l.093-.014c.394-.062.788-.128,1.183-.194l.165-.029q.51-.087,1.021-.179l.3-.052c.216-.04.431-.076.646-.117l.089-.018c.71-.134,1.421-.279,2.131-.429l.128-.025.359-.078.14-.032q2.345-.508,4.676-1.127c.047-.013.093-.023.139-.036s.115-.028.173-.044c.091-.024.182-.051.274-.076l.23-.063.611-.17.22-.061c.3-.083.59-.168.884-.253l.226-.067.139-.041.231-.068c.286-.085.57-.175.855-.263.206-.063.412-.125.618-.189a105.766,105.766,0,0,0,48.085-31.289l.026-.029q.822-.939,1.62-1.9c.225-.268.442-.541.664-.811.262-.32.527-.637.785-.96l.134-.168.234-.3.13-.164q.511-.649,1.012-1.306c.038-.049.074-.1.112-.148.174-.229.346-.459.519-.69.05-.068.1-.135.152-.2.241-.324.482-.649.719-.977l.139-.192c.136-.189.273-.378.408-.568l.119-.165q.346-.489.686-.982l.124-.182q.357-.516.707-1.036c.04-.06.081-.118.121-.178q.318-.474.632-.953l.14-.216.333-.512c.034-.055.07-.109.1-.163q.511-.8,1.009-1.6l.082-.135.106-.176.182-.3q.469-.775.927-1.559l.1-.164.067-.114.094-.161c.374-.648.738-1.3,1.1-1.957l.091-.168a106.716,106.716,0,0,0,9.466-23.551c.014-.052.027-.105.041-.158l.107-.4a105.664,105.664,0,0,0,2.276-14.916q.27-2.379.437-4.767c.019-.278.038-.556.055-.834s.032-.527.045-.791q.046-.861.08-1.723v-.062c.009-.23.018-.459.025-.689V79.44q.017-.553.028-1.107v-.012q.019-.974.023-1.947v-.123h0c0-.054,0-.109,0-.164v-.411l0-.135-.009-.364c0-.079,0-.158,0-.238.181-13.57-1.133-28.622-5.061-40.5l-.284-.1a99.9,99.9,0,0,0-9.043-21.151A79.823,79.823,0,0,1,640.556,0H268.785Q269.379,2.007,270.05,3.987Z"/></svg>