<svg class="ico_svg bg_scroll" width="137" height="136" viewBox="0 0 137 136" fill="none" xmlns="http://www.w3.org/2000/svg">
<g clip-path="url(#clip0_8781_2958)">
<path class="svg-elm svg-path svg-path01" d="M52.8223 125.753C52.6556 125.345 52.4284 125.004 52.1481 124.716C51.8678 124.429 51.5193 124.225 51.0951 124.096C50.527 123.922 50.0194 123.937 49.58 124.149C49.1407 124.361 48.8452 124.701 48.6937 125.193C48.5498 125.67 48.5422 126.086 48.6786 126.434C48.8149 126.782 49.0346 127.108 49.3376 127.395C49.6406 127.683 49.974 127.963 50.3376 128.228C50.5724 128.402 50.83 128.606 51.1103 128.856C51.3905 129.106 51.6405 129.386 51.8678 129.704C52.0951 130.021 52.2466 130.377 52.3299 130.771C52.4132 131.164 52.3829 131.603 52.2314 132.087C52.0723 132.617 51.792 133.041 51.3981 133.382C51.0042 133.715 50.5421 133.934 50.0043 134.025C49.4664 134.116 48.8983 134.078 48.2998 133.889C47.7241 133.715 47.2544 133.45 46.8832 133.102C46.5196 132.753 46.2393 132.36 46.0348 131.929C45.8378 131.497 45.709 131.066 45.6484 130.634L46.9514 130.339C47.0044 130.642 47.0878 130.952 47.2165 131.27C47.3453 131.588 47.5195 131.868 47.762 132.118C48.0044 132.367 48.3301 132.557 48.7468 132.685C49.3225 132.859 49.7922 132.852 50.1406 132.655C50.4891 132.458 50.7163 132.186 50.8224 131.845C50.9133 131.55 50.9209 131.255 50.8451 130.96C50.7694 130.665 50.5876 130.354 50.2921 130.029C49.9967 129.704 49.5725 129.333 49.0195 128.932C48.7695 128.743 48.5119 128.523 48.2468 128.258C47.9816 128.001 47.7544 127.706 47.565 127.373C47.3756 127.04 47.2468 126.677 47.1787 126.275C47.1105 125.874 47.1559 125.428 47.3074 124.944C47.4514 124.474 47.6711 124.088 47.9589 123.763C48.2544 123.445 48.5952 123.195 48.9816 123.029C49.3755 122.862 49.7846 122.764 50.2164 122.741C50.6482 122.719 51.08 122.772 51.5042 122.908C52.0799 123.082 52.5799 123.377 52.9965 123.771C53.4132 124.172 53.7389 124.633 53.9889 125.155C54.2313 125.678 54.398 126.207 54.4889 126.745L53.2389 127.123C53.1253 126.624 52.9889 126.169 52.8147 125.761L52.8223 125.753Z" fill="#A97F2A"/>
<path class="svg-elm svg-path svg-path02" d="M42.2922 123.029C42.2619 122.265 42.0649 121.576 41.6862 120.955C41.315 120.335 40.7999 119.85 40.156 119.502C39.6863 119.253 39.2318 119.079 38.7772 118.995C38.3227 118.904 37.8834 118.889 37.444 118.935C37.0046 118.98 36.6031 119.094 36.2168 119.26L37.0652 117.694C37.6713 117.55 38.2697 117.52 38.8454 117.603C39.4287 117.686 40.0726 117.921 40.7923 118.307C41.4741 118.67 42.0422 119.139 42.5043 119.707C42.9664 120.274 43.2922 120.902 43.4967 121.599C43.7012 122.295 43.7618 123.014 43.6861 123.763C43.6027 124.512 43.3679 125.254 42.9816 125.98C42.5876 126.707 42.1028 127.312 41.5195 127.789C40.9362 128.266 40.2999 128.614 39.603 128.826C38.906 129.038 38.2015 129.106 37.4743 129.038C36.7471 128.962 36.0426 128.743 35.3608 128.379C34.6411 127.993 34.0881 127.577 33.6942 127.138C33.3079 126.699 33.0048 126.192 32.7852 125.602L33.6336 124.035C33.7018 124.444 33.8381 124.845 34.0351 125.231C34.232 125.625 34.4972 125.98 34.8153 126.313C35.1411 126.646 35.535 126.934 35.9971 127.184C36.641 127.532 37.3304 127.691 38.05 127.66C38.7772 127.63 39.4666 127.418 40.1181 127.032C40.7696 126.646 41.2998 126.064 41.7089 125.299C42.118 124.542 42.3074 123.786 42.2771 123.021L42.2922 123.029Z" fill="#A97F2A"/>
<path class="svg-elm svg-path svg-path03" d="M26.8325 122.65L25.0826 121.205C24.5296 120.743 24.113 120.229 23.8479 119.661C23.5827 119.094 23.4842 118.511 23.5373 117.913C23.5903 117.315 23.8479 116.755 24.2872 116.225C24.719 115.703 25.2266 115.355 25.8023 115.181C26.378 115.007 26.9765 114.992 27.5825 115.151C28.1885 115.302 28.7718 115.612 29.3324 116.067L31.0823 117.512L30.3248 118.428L28.5673 116.982C28.1961 116.68 27.8173 116.475 27.431 116.377C27.0447 116.278 26.6659 116.278 26.3023 116.392C25.9387 116.505 25.6129 116.74 25.3251 117.088C25.0372 117.436 24.8705 117.8 24.8251 118.178C24.7796 118.556 24.8478 118.927 25.022 119.29C25.1963 119.654 25.469 119.987 25.8326 120.289L27.5901 121.735L26.8325 122.65ZM26.3629 122.265L33.461 113.69L34.5064 114.553L27.4083 123.127L26.3629 122.265ZM28.3097 116.551L28.7415 109.793L30.0293 110.86L29.4763 117.512L28.3097 116.551Z" fill="#A97F2A"/>
<path class="svg-elm svg-path svg-path04" d="M20.7194 112.881C19.9997 113.092 19.2801 113.161 18.5604 113.077C17.8408 113.002 17.1514 112.782 16.4924 112.419C15.8333 112.056 15.2576 111.564 14.7576 110.936C14.2501 110.3 13.9016 109.619 13.7046 108.9C13.5077 108.181 13.4547 107.47 13.538 106.751C13.6213 106.032 13.8561 105.351 14.2198 104.7C14.591 104.049 15.0909 103.466 15.7348 102.959C16.3636 102.46 17.0454 102.104 17.765 101.885C18.4847 101.673 19.2119 101.605 19.9316 101.68C20.6512 101.756 21.3406 101.975 21.9921 102.331C22.6435 102.687 23.2268 103.179 23.7344 103.822C24.2344 104.45 24.5828 105.131 24.7874 105.85C24.9843 106.569 25.0449 107.288 24.954 108.007C24.8631 108.726 24.6358 109.415 24.2647 110.065C23.8935 110.724 23.3859 111.299 22.7572 111.798C22.1208 112.305 21.4391 112.661 20.7194 112.873V112.881ZM23.2874 108.854C23.5753 108.158 23.6738 107.447 23.5753 106.713C23.4768 105.979 23.1814 105.298 22.6814 104.662C22.1739 104.026 21.5754 103.572 20.8861 103.315C20.1967 103.058 19.477 102.989 18.7347 103.111C17.9923 103.232 17.2953 103.557 16.6363 104.072C15.9772 104.594 15.5076 105.199 15.2197 105.895C14.9318 106.592 14.8334 107.303 14.9243 108.037C15.0152 108.771 15.3182 109.452 15.8257 110.096C16.3257 110.724 16.9242 111.17 17.6211 111.435C18.318 111.692 19.0377 111.768 19.7725 111.647C20.5149 111.526 21.2118 111.2 21.8709 110.686C22.5299 110.164 22.9996 109.558 23.2874 108.862V108.854Z" fill="#A97F2A"/>
<path class="svg-elm svg-path svg-path05" d="M8.06203 100.424L16.8343 95.9213L14.8344 92.0315L15.9631 91.4487L18.5766 96.5343L8.66805 101.62L8.04688 100.417L8.06203 100.424Z" fill="#A97F2A"/>
<path class="svg-elm svg-path svg-path06" d="M3.91406 90.9869L13.2696 87.8615L11.8833 83.7143L13.0878 83.3132L14.9059 88.7393L4.34586 92.2659L3.91406 90.9869Z" fill="#A97F2A"/>
<path class="svg-elm svg-path svg-path07" d="M9.18262 73.059C9.50836 72.7639 9.75835 72.4385 9.93258 72.0752C10.1068 71.7195 10.1826 71.3185 10.1598 70.872C10.1295 70.2817 9.94773 69.8125 9.59927 69.4644C9.2508 69.1162 8.82658 68.9573 8.31904 68.98C7.81906 69.0027 7.43272 69.139 7.14486 69.3887C6.857 69.6384 6.62974 69.9487 6.46308 70.3347C6.29642 70.7206 6.14492 71.1293 6.01613 71.5531C5.93281 71.8331 5.82675 72.1433 5.68282 72.4915C5.53889 72.8396 5.36466 73.1726 5.13739 73.4904C4.91771 73.8082 4.62985 74.0731 4.28896 74.285C3.94807 74.4969 3.52385 74.618 3.0163 74.6407C2.4633 74.6634 1.96333 74.5499 1.51638 74.3002C1.06944 74.0429 0.705822 73.6796 0.440685 73.2028C0.175549 72.7261 0.0164665 72.1812 -0.0138349 71.5531C-0.0441362 70.9476 0.0467678 70.4179 0.251302 69.9563C0.455836 69.4946 0.728548 69.1011 1.06944 68.7606C1.41033 68.4276 1.77394 68.1627 2.15271 67.9659L2.87237 69.0935C2.60723 69.2449 2.3421 69.4341 2.08453 69.6536C1.82697 69.8806 1.62244 70.1455 1.47093 70.4557C1.31942 70.766 1.25125 71.1368 1.2664 71.5682C1.2967 72.1736 1.46336 72.605 1.76637 72.8623C2.06938 73.1272 2.4027 73.2482 2.76631 73.2331C3.0769 73.218 3.34962 73.1272 3.60718 72.9531C3.86474 72.779 4.092 72.5066 4.30411 72.1206C4.51622 71.7347 4.71318 71.2125 4.91013 70.5541C5.00104 70.2514 5.12224 69.9336 5.28133 69.6006C5.43283 69.2676 5.63737 68.9498 5.87978 68.6546C6.12219 68.3595 6.4252 68.1173 6.78882 67.9205C7.14486 67.7238 7.57665 67.6103 8.0842 67.5876C8.56902 67.5649 9.01597 67.6405 9.41746 67.807C9.81895 67.9735 10.1674 68.2157 10.4553 68.5184C10.7431 68.8287 10.978 69.1844 11.1446 69.5854C11.3113 69.9865 11.4098 70.4103 11.4249 70.8568C11.4552 71.4622 11.3492 72.0223 11.1143 72.552C10.8795 73.0742 10.5538 73.5434 10.1447 73.952C9.73563 74.3607 9.28868 74.6937 8.81143 74.9585L8.03117 73.9142C8.46297 73.6418 8.84173 73.3542 9.16747 73.059H9.18262Z" fill="#A97F2A"/>
<path class="svg-elm svg-path svg-path08" d="M8.17105 62.2296C8.87556 61.942 9.45886 61.5182 9.92096 60.9506C10.3831 60.383 10.6633 59.7398 10.7694 59.0208C10.8451 58.4987 10.8527 58.0068 10.7694 57.5527C10.7012 57.0986 10.5649 56.6749 10.3679 56.2813C10.1709 55.8878 9.93611 55.5397 9.64824 55.2445L11.4133 55.5018C11.7542 56.024 11.9814 56.5689 12.1027 57.1441C12.2239 57.7192 12.2239 58.4079 12.1027 59.2176C11.989 59.982 11.7466 60.6782 11.3678 61.2987C10.9891 61.9269 10.5118 62.449 9.92853 62.8804C9.34523 63.3118 8.68618 63.6145 7.95137 63.7961C7.21656 63.9777 6.44388 64.008 5.62574 63.8869C4.8076 63.7658 4.07279 63.5161 3.42132 63.1301C2.76984 62.7442 2.22441 62.2598 1.79262 61.6847C1.36082 61.1095 1.05023 60.4663 0.868427 59.7549C0.686618 59.0511 0.656317 58.3095 0.769947 57.5451C0.891153 56.7354 1.08811 56.077 1.3684 55.5624C1.64869 55.0478 2.02745 54.5861 2.5047 54.1851L4.26975 54.4424C3.90614 54.6467 3.57282 54.9116 3.27738 55.2294C2.97437 55.5473 2.72438 55.9181 2.52743 56.3343C2.33047 56.7505 2.18654 57.2197 2.11078 57.7419C2.00473 58.4684 2.08806 59.1646 2.36077 59.8382C2.63348 60.5117 3.06527 61.0868 3.65615 61.5636C4.24703 62.0404 4.96668 62.3431 5.83027 62.4717C6.67871 62.6004 7.45897 62.5172 8.16348 62.2296H8.17105Z" fill="#A97F2A"/>
<path class="svg-elm svg-path svg-path09" d="M3.47796 47.0033L13.9622 50.7569L13.5077 52.0283L3.02344 48.2747L3.47796 47.0033ZM3.27342 47.5709L4.03853 45.4292C4.28094 44.7481 4.62941 44.1881 5.07635 43.7492C5.5233 43.3102 6.03842 43.0151 6.62172 42.8637C7.20502 42.7124 7.81863 42.7578 8.47011 42.9924C9.10643 43.2194 9.60641 43.5751 9.97002 44.0594C10.3336 44.5438 10.5457 45.0962 10.6064 45.7243C10.667 46.3525 10.5761 47.0033 10.3336 47.6768L9.56853 49.8185L8.44738 49.4174L9.21249 47.2757C9.37157 46.8292 9.43217 46.4054 9.40187 46.0043C9.364 45.6033 9.23522 45.2476 9.00038 44.9524C8.77312 44.6497 8.4398 44.4227 8.01559 44.2713C7.58379 44.12 7.18987 44.0821 6.81868 44.1729C6.44749 44.2638 6.12175 44.4454 5.84146 44.733C5.56118 45.0205 5.33392 45.3914 5.17483 45.8379L4.40972 47.9795L3.28857 47.5784L3.27342 47.5709ZM9.5155 46.8898L16.0227 44.9978L15.4546 46.5719L9.00038 48.3125L9.50793 46.8898H9.5155Z" fill="#A97F2A"/>
<path class="svg-elm svg-path svg-path10" d="M10.4098 38.5123C9.97047 37.9069 9.65988 37.256 9.49323 36.5522C9.32657 35.8484 9.29627 35.1295 9.41747 34.3879C9.5311 33.6462 9.80382 32.9348 10.228 32.2537C10.6598 31.5575 11.175 30.9975 11.7886 30.5737C12.3946 30.1499 13.0536 29.8548 13.7581 29.6883C14.4626 29.5294 15.1823 29.5142 15.9247 29.6353C16.6671 29.7564 17.3792 30.044 18.0761 30.4753C18.7579 30.8991 19.326 31.4137 19.773 32.0267C20.2199 32.6397 20.5305 33.2905 20.6972 33.9943C20.8638 34.6981 20.8941 35.4171 20.7805 36.1511C20.6669 36.8852 20.3941 37.5966 19.9623 38.2928C19.5381 38.9739 19.0154 39.5339 18.4094 39.9653C17.7958 40.3966 17.1367 40.6918 16.4322 40.8507C15.7277 41.0096 15.0005 41.0248 14.2581 40.8961C13.5157 40.7675 12.8036 40.4875 12.1143 40.0637C11.4174 39.6323 10.8492 39.1177 10.4098 38.5123ZM15.0611 39.5718C15.8111 39.6096 16.5156 39.4582 17.1746 39.1177C17.8337 38.7771 18.3791 38.2701 18.8033 37.5814C19.2351 36.8852 19.4548 36.1738 19.4624 35.4398C19.4699 34.7057 19.2957 34.0095 18.9245 33.3511C18.5609 32.6927 18.0231 32.1478 17.311 31.7013C16.5989 31.2624 15.8641 31.0202 15.1141 30.9824C14.3642 30.9445 13.6597 31.0959 13.0006 31.4289C12.3416 31.7618 11.7961 32.2765 11.3719 32.9727C10.9477 33.6538 10.728 34.3727 10.7129 35.1144C10.7053 35.856 10.8795 36.5522 11.2431 37.2106C11.6067 37.869 12.1446 38.4139 12.8567 38.8604C13.5688 39.2993 14.3036 39.5415 15.0535 39.5793L15.0611 39.5718Z" fill="#A97F2A"/>
<path class="svg-elm svg-path svg-path11" d="M17.8463 22.4158L25.058 29.1435L28.0427 25.9499L28.9745 26.8202L25.0656 31.0052L16.9297 23.4147L17.8539 22.4309L17.8463 22.4158Z" fill="#A97F2A"/>
<path class="svg-elm svg-path svg-path12" d="M25.3457 15.3171L31.4666 23.0438L34.8982 20.3345L35.686 21.3335L31.1939 24.8827L24.2852 16.1571L25.3457 15.3171Z" fill="#A97F2A"/>
<path class="svg-elm svg-path svg-path13" d="M43.9806 14.1743C44.367 14.3786 44.7609 14.4997 45.1624 14.5451C45.5563 14.5829 45.9654 14.5224 46.3744 14.3483C46.9199 14.1213 47.2986 13.7883 47.5107 13.3418C47.7153 12.9029 47.7229 12.4413 47.5259 11.9721C47.3365 11.5104 47.0714 11.1926 46.7456 11.0034C46.4199 10.8218 46.0411 10.7158 45.6245 10.6856C45.2078 10.6553 44.7685 10.6553 44.3215 10.6856C44.0337 10.7007 43.7003 10.7083 43.3292 10.6931C42.958 10.678 42.5792 10.625 42.208 10.5191C41.8292 10.4207 41.4883 10.2391 41.1702 9.99689C40.852 9.75472 40.602 9.39147 40.4051 8.92227C40.193 8.41523 40.1324 7.90819 40.2157 7.40115C40.3066 6.89411 40.5263 6.43248 40.8823 6.01625C41.2384 5.60003 41.7005 5.27461 42.2838 5.03245C42.8443 4.79785 43.3746 4.70703 43.8746 4.74487C44.3745 4.78271 44.8442 4.90379 45.276 5.10812C45.7078 5.31245 46.079 5.56219 46.3972 5.85733L45.579 6.91682C45.3442 6.71249 45.0791 6.53086 44.7836 6.37194C44.4882 6.21301 44.1624 6.10707 43.8215 6.06923C43.4807 6.03139 43.1019 6.09193 42.7004 6.25842C42.1398 6.49302 41.7914 6.79573 41.6474 7.16655C41.5035 7.53737 41.5035 7.89305 41.6474 8.22604C41.7686 8.51361 41.9504 8.74064 42.1929 8.92227C42.4428 9.10389 42.7837 9.22498 43.2155 9.29309C43.6473 9.3612 44.2079 9.36877 44.8897 9.33093C45.2078 9.31579 45.5487 9.32336 45.9123 9.35363C46.2835 9.3839 46.6472 9.46715 47.0032 9.5958C47.3592 9.72445 47.6925 9.92878 48.0031 10.1937C48.3061 10.4585 48.5637 10.8293 48.7531 11.2985C48.9425 11.745 49.0258 12.1915 49.0031 12.6229C48.9804 13.0543 48.8743 13.4629 48.6849 13.8413C48.4955 14.2197 48.238 14.5527 47.9122 14.8478C47.5941 15.143 47.2229 15.3776 46.8138 15.544C46.2532 15.7786 45.6927 15.8695 45.1169 15.8316C44.5412 15.7862 43.9958 15.6424 43.4731 15.4003C42.9504 15.1505 42.4807 14.8478 42.0716 14.4921L42.7913 13.4024C43.2004 13.7127 43.5943 13.9775 43.9882 14.1819L43.9806 14.1743Z" fill="#A97F2A"/>
<path class="svg-elm svg-path svg-path14" d="M53.8384 9.55809C54.346 10.1257 54.9444 10.5343 55.6338 10.7689C56.3232 11.0035 57.0201 11.0565 57.7397 10.9127C58.2624 10.8068 58.7245 10.6478 59.126 10.4208C59.5275 10.2014 59.8836 9.92891 60.1866 9.61864C60.4896 9.30836 60.7396 8.96024 60.9214 8.58942L61.2699 10.3376C60.8911 10.837 60.4517 11.2381 59.9517 11.5408C59.4518 11.8436 58.8003 12.0782 57.9973 12.2371C57.2398 12.3884 56.4974 12.396 55.7853 12.2522C55.0657 12.1084 54.4142 11.836 53.8081 11.4349C53.2097 11.0338 52.7021 10.5116 52.2779 9.88351C51.8613 9.25538 51.5734 8.53645 51.4068 7.7267C51.2477 6.91695 51.2325 6.13747 51.3765 5.39583C51.5204 4.65419 51.7931 3.98066 52.187 3.37524C52.5809 2.76982 53.0885 2.26278 53.6945 1.86169C54.3005 1.45304 54.9823 1.17303 55.7399 1.02167C56.5428 0.862751 57.2322 0.824912 57.8079 0.915725C58.3912 1.00654 58.9442 1.2033 59.4896 1.52114L59.8381 3.26929C59.5199 2.99686 59.1639 2.77739 58.7624 2.60333C58.3609 2.42927 57.9291 2.31576 57.467 2.27035C57.0049 2.22495 56.5201 2.24765 55.9974 2.3536C55.2778 2.49738 54.649 2.81523 54.1112 3.29957C53.5733 3.7839 53.1718 4.38932 52.9218 5.10069C52.6718 5.81963 52.6264 6.5991 52.8006 7.45426C52.9673 8.29428 53.3082 8.99808 53.8157 9.56566L53.8384 9.55809Z" fill="#A97F2A"/>
<path class="svg-elm svg-path svg-path15" d="M66.4107 0.0302474L66.5925 11.1548L65.2365 11.1775L65.0547 0.0529507L66.4031 0.0302474H66.4107ZM65.8047 0.0378152L68.0773 -2.35797e-05C68.7969 -0.0151591 69.4408 0.113493 70.0165 0.370796C70.5923 0.6281 71.0468 1.00649 71.3877 1.49839C71.7286 1.99029 71.9028 2.58058 71.9179 3.26924C71.9255 3.95034 71.774 4.54063 71.4483 5.04766C71.1225 5.5547 70.6756 5.94823 70.115 6.22823C69.5544 6.50824 68.9105 6.65203 68.1909 6.66716L65.9183 6.705L65.8956 5.51686L68.1682 5.47903C68.6454 5.47146 69.062 5.38065 69.4257 5.20659C69.7893 5.03253 70.0696 4.78279 70.2741 4.46495C70.4786 4.1471 70.5695 3.75358 70.562 3.29951C70.5544 2.84545 70.4483 2.45949 70.2362 2.14165C70.0241 1.8238 69.7362 1.5892 69.3651 1.42271C68.9939 1.25622 68.5772 1.18055 68.1 1.18811L65.8274 1.22595L65.8047 0.0378152ZM68.6454 5.63038L72.7134 11.0489L71.0392 11.0792L67.1303 5.66065L68.6454 5.63795V5.63038Z" fill="#A97F2A"/>
<path class="svg-elm svg-path svg-path16" d="M76.9435 3.61738C77.3602 2.99682 77.8753 2.48979 78.4813 2.0887C79.0874 1.6876 79.754 1.42273 80.4888 1.27895C81.2236 1.13516 81.9811 1.15029 82.7765 1.31678C83.572 1.48328 84.2765 1.78599 84.8901 2.20978C85.4961 2.63357 85.9961 3.15575 86.39 3.76117C86.7839 4.36659 87.0415 5.04012 87.1778 5.78176C87.3066 6.51583 87.2915 7.28774 87.1248 8.08235C86.9581 8.8694 86.6627 9.58076 86.2461 10.2013C85.8294 10.8294 85.3143 11.3365 84.7083 11.7376C84.1022 12.1387 83.4356 12.4035 82.7084 12.5473C81.9811 12.6911 81.216 12.676 80.413 12.5095C79.6252 12.343 78.9207 12.0479 78.3071 11.6165C77.6935 11.1927 77.1935 10.6705 76.7996 10.0651C76.4057 9.45968 76.1481 8.77858 76.0193 8.03694C75.8906 7.29531 75.9057 6.53096 76.0724 5.74392C76.239 4.9493 76.5345 4.23794 76.9511 3.61738H76.9435ZM77.5344 8.34722C77.7541 9.06616 78.1404 9.67915 78.6859 10.1786C79.2313 10.6857 79.8979 11.0186 80.6858 11.1851C81.4812 11.3516 82.2311 11.3138 82.9281 11.0716C83.625 10.8294 84.2234 10.4208 84.7158 9.8532C85.2082 9.28562 85.5415 8.58939 85.7158 7.77207C85.89 6.95476 85.8673 6.18285 85.64 5.46391C85.4128 4.74497 85.0416 4.13199 84.4962 3.63252C83.9507 3.13304 83.2917 2.7925 82.4887 2.62601C81.7009 2.45951 80.9585 2.49735 80.254 2.73952C79.5495 2.98169 78.9586 3.38278 78.4586 3.95036C77.9662 4.51794 77.6329 5.21417 77.4587 6.03149C77.2844 6.84881 77.3072 7.62072 77.5344 8.33965V8.34722Z" fill="#A97F2A"/>
<path class="svg-elm svg-path svg-path17" d="M94.64 5.13851L90.7462 14.1895L94.7687 15.915L94.2688 17.0804L89.0039 14.8252L93.3976 4.6012L94.64 5.13851Z" fill="#A97F2A"/>
<path class="svg-elm svg-path svg-path18" d="M103.866 9.79267L98.6538 18.155L102.366 20.4632L101.691 21.5454L96.8281 18.5183L102.714 9.07373L103.866 9.7851V9.79267Z" fill="#A97F2A"/>
<path class="svg-elm svg-path svg-path19" d="M111.236 26.9261C111.175 27.365 111.19 27.7736 111.289 28.1596C111.387 28.5456 111.584 28.9012 111.88 29.2342C112.281 29.6732 112.721 29.9153 113.205 29.9607C113.69 30.0061 114.122 29.8548 114.501 29.5142C114.872 29.1812 115.084 28.8256 115.145 28.4547C115.205 28.0839 115.175 27.698 115.061 27.2893C114.94 26.8882 114.796 26.4796 114.622 26.0633C114.508 25.7985 114.395 25.4882 114.274 25.1325C114.152 24.7768 114.084 24.406 114.054 24.02C114.024 23.6341 114.069 23.2481 114.198 22.8697C114.327 22.4914 114.577 22.1281 114.948 21.7876C115.357 21.4167 115.811 21.1897 116.319 21.0989C116.826 21.0081 117.334 21.0611 117.849 21.2502C118.364 21.4394 118.826 21.7724 119.251 22.2341C119.66 22.6806 119.932 23.1498 120.069 23.6341C120.205 24.1184 120.25 24.6028 120.197 25.072C120.152 25.5487 120.038 25.9801 119.872 26.3812L118.599 25.9725C118.713 25.6849 118.788 25.3747 118.841 25.0417C118.895 24.7087 118.879 24.3682 118.804 24.0352C118.728 23.6946 118.538 23.3692 118.243 23.0514C117.834 22.6049 117.432 22.3778 117.031 22.3703C116.629 22.3703 116.296 22.4838 116.031 22.726C115.804 22.9303 115.645 23.18 115.561 23.4752C115.478 23.7703 115.478 24.126 115.561 24.5574C115.645 24.9887 115.826 25.5185 116.099 26.1466C116.22 26.4342 116.326 26.7596 116.425 27.1153C116.523 27.4709 116.569 27.8418 116.569 28.2201C116.569 28.5985 116.493 28.9845 116.342 29.3629C116.19 29.7413 115.933 30.1045 115.554 30.4451C115.19 30.7705 114.804 31.0051 114.387 31.1262C113.971 31.2548 113.554 31.2926 113.13 31.2397C112.705 31.1867 112.304 31.058 111.918 30.8613C111.531 30.6645 111.19 30.3921 110.887 30.0667C110.478 29.6202 110.198 29.1207 110.047 28.5683C109.895 28.0158 109.842 27.4482 109.895 26.8731C109.948 26.2979 110.077 25.7531 110.274 25.246L111.546 25.5487C111.387 26.0331 111.281 26.4947 111.221 26.9336L111.236 26.9261Z" fill="#A97F2A"/>
<path class="svg-elm svg-path svg-path20" d="M118.933 34.6225C118.569 35.296 118.395 35.9922 118.402 36.7187C118.402 37.4452 118.599 38.1188 118.986 38.7469C119.258 39.2009 119.569 39.5793 119.917 39.882C120.266 40.1847 120.637 40.4269 121.038 40.6085C121.44 40.7902 121.841 40.9037 122.258 40.9491L120.735 41.8724C120.137 41.6907 119.614 41.4107 119.152 41.0475C118.69 40.6842 118.251 40.1469 117.827 39.4507C117.425 38.7923 117.167 38.096 117.061 37.3771C116.955 36.6582 116.986 35.9468 117.16 35.243C117.334 34.5392 117.645 33.8884 118.099 33.283C118.546 32.6775 119.129 32.1554 119.834 31.7316C120.539 31.3078 121.266 31.0278 122.016 30.9143C122.766 30.7932 123.485 30.8234 124.19 30.9899C124.894 31.1564 125.538 31.4591 126.129 31.8829C126.72 32.3143 127.212 32.8592 127.614 33.5176C128.038 34.2138 128.303 34.8495 128.417 35.4246C128.53 35.9998 128.53 36.5976 128.417 37.2106L126.894 38.1339C127.046 37.7479 127.129 37.3317 127.159 36.9003C127.182 36.4614 127.144 36.0225 127.031 35.576C126.917 35.1295 126.728 34.6754 126.455 34.2214C126.076 33.5932 125.561 33.1165 124.925 32.7684C124.281 32.4278 123.584 32.2613 122.826 32.2689C122.069 32.2689 121.319 32.5035 120.576 32.9575C119.842 33.404 119.296 33.9641 118.933 34.63V34.6225Z" fill="#A97F2A"/>
<path class="svg-elm svg-path svg-path21" d="M132.271 43.3405L121.802 47.1319L121.34 45.8605L131.809 42.0691L132.271 43.3405ZM127.696 47.2833L123.893 52.891L123.325 51.3244L127.18 45.8681L127.696 47.2908V47.2833ZM132.067 42.7729L132.839 44.907C133.089 45.5881 133.18 46.2389 133.119 46.8595C133.059 47.4876 132.854 48.04 132.498 48.5244C132.142 49.0087 131.642 49.3644 130.991 49.599C130.355 49.8336 129.741 49.8714 129.15 49.7352C128.559 49.599 128.044 49.3039 127.597 48.8574C127.15 48.4184 126.802 47.8584 126.559 47.1773L125.787 45.0432L126.908 44.6346L127.68 46.7687C127.839 47.2152 128.067 47.586 128.347 47.8736C128.635 48.1611 128.961 48.3428 129.324 48.4336C129.688 48.5244 130.089 48.4865 130.521 48.3276C130.953 48.1687 131.279 47.9417 131.506 47.639C131.733 47.3362 131.87 46.9806 131.9 46.5795C131.93 46.1784 131.87 45.7546 131.71 45.3081L130.938 43.174L132.059 42.7653L132.067 42.7729Z" fill="#A97F2A"/>
<path class="svg-elm svg-path svg-path22" d="M132.371 54.3137C133.098 54.4953 133.75 54.8056 134.326 55.2446C134.901 55.6759 135.386 56.2208 135.765 56.8641C136.144 57.5073 136.394 58.2262 136.5 59.0284C136.613 59.8382 136.568 60.6025 136.371 61.3139C136.174 62.0328 135.856 62.6761 135.416 63.2512C134.977 63.8264 134.432 64.2956 133.78 64.6664C133.129 65.0372 132.401 65.2794 131.591 65.3929C130.795 65.4989 130.03 65.461 129.296 65.2794C128.561 65.0978 127.909 64.7875 127.334 64.3561C126.758 63.9248 126.273 63.3875 125.894 62.7518C125.515 62.1161 125.265 61.3896 125.159 60.5798C125.053 59.7852 125.091 59.0209 125.288 58.3019C125.485 57.583 125.803 56.9322 126.243 56.357C126.682 55.7819 127.228 55.3127 127.887 54.9343C128.546 54.5635 129.273 54.3213 130.068 54.2078C130.879 54.0943 131.644 54.1321 132.371 54.3213V54.3137ZM128.114 56.4705C127.515 56.9246 127.068 57.4846 126.773 58.1733C126.485 58.8544 126.387 59.596 126.5 60.3906C126.614 61.2004 126.894 61.889 127.364 62.4642C127.826 63.0393 128.409 63.4631 129.114 63.7356C129.811 64.008 130.583 64.0913 131.409 63.9777C132.235 63.8642 132.954 63.5842 133.553 63.1301C134.151 62.6761 134.598 62.1161 134.894 61.435C135.189 60.7539 135.28 60.0198 135.166 59.2101C135.06 58.4154 134.773 57.7268 134.303 57.1441C133.841 56.5689 133.257 56.1376 132.553 55.8651C131.848 55.5927 131.083 55.5094 130.258 55.6229C129.424 55.7365 128.712 56.0165 128.106 56.4705H128.114Z" fill="#A97F2A"/>
<path class="svg-elm svg-path svg-path23" d="M136.925 71.432L127.077 70.8644L126.827 75.2234L125.555 75.1477L125.888 69.4341L137.009 70.0773L136.933 71.4244L136.925 71.432Z" fill="#A97F2A"/>
<path class="svg-elm svg-path svg-path24" d="M135.689 81.6787L126.038 79.6354L125.129 83.9112L123.887 83.6463L125.076 78.0462L135.969 80.3543L135.689 81.6787Z" fill="#A97F2A"/>
<path class="svg-elm svg-path svg-path25" d="M122.063 94.4455C121.631 94.5363 121.252 94.6877 120.919 94.9071C120.586 95.1266 120.313 95.4369 120.108 95.8304C119.828 96.3526 119.752 96.852 119.873 97.3288C119.995 97.798 120.283 98.1537 120.729 98.3959C121.169 98.6305 121.578 98.7137 121.949 98.6456C122.32 98.5775 122.676 98.4186 123.017 98.1764C123.358 97.9266 123.691 97.6542 124.025 97.3515C124.237 97.1547 124.494 96.9353 124.782 96.7082C125.078 96.4812 125.403 96.2844 125.76 96.1255C126.116 95.9666 126.494 95.8834 126.896 95.8682C127.297 95.8607 127.722 95.9742 128.176 96.2088C128.661 96.4661 129.032 96.8142 129.29 97.2607C129.547 97.7072 129.668 98.2067 129.661 98.7515C129.661 99.2964 129.502 99.8489 129.214 100.401C128.934 100.939 128.585 101.347 128.168 101.642C127.759 101.93 127.32 102.134 126.858 102.255C126.396 102.369 125.949 102.414 125.517 102.392L125.472 101.052C125.782 101.052 126.1 101.029 126.434 100.969C126.767 100.908 127.078 100.78 127.373 100.59C127.661 100.401 127.911 100.114 128.115 99.7353C128.396 99.198 128.471 98.744 128.343 98.3656C128.214 97.9872 127.987 97.7148 127.668 97.5407C127.396 97.3969 127.108 97.3364 126.805 97.3515C126.502 97.3666 126.161 97.4953 125.782 97.7223C125.403 97.9494 124.964 98.2975 124.464 98.7667C124.229 98.9786 123.964 99.1905 123.661 99.4024C123.358 99.6143 123.025 99.7808 122.661 99.9094C122.298 100.038 121.919 100.091 121.51 100.083C121.101 100.068 120.676 99.9472 120.222 99.7126C119.79 99.4856 119.442 99.198 119.184 98.8499C118.927 98.5018 118.745 98.1234 118.654 97.7072C118.563 97.291 118.548 96.8672 118.601 96.4434C118.661 96.012 118.79 95.6034 119.002 95.2098C119.283 94.6725 119.661 94.2412 120.131 93.9082C120.601 93.5752 121.116 93.3406 121.676 93.1968C122.237 93.053 122.79 92.9925 123.335 93L123.479 94.2941C122.964 94.3093 122.495 94.3622 122.063 94.4531V94.4455Z" fill="#A97F2A"/>
<path class="svg-elm svg-path svg-path26" d="M117.421 104.276C116.663 104.162 115.951 104.231 115.262 104.488C114.58 104.738 114.012 105.154 113.55 105.721C113.216 106.13 112.966 106.554 112.792 106.985C112.625 107.417 112.519 107.848 112.489 108.279C112.459 108.718 112.489 109.134 112.58 109.543L111.194 108.423C111.163 107.803 111.247 107.212 111.436 106.66C111.625 106.107 111.981 105.509 112.497 104.874C112.981 104.276 113.55 103.799 114.193 103.451C114.837 103.103 115.519 102.899 116.239 102.823C116.958 102.755 117.678 102.823 118.405 103.042C119.133 103.262 119.814 103.633 120.458 104.147C121.102 104.669 121.602 105.26 121.966 105.918C122.329 106.584 122.549 107.273 122.632 107.992C122.708 108.711 122.647 109.422 122.443 110.118C122.238 110.814 121.89 111.465 121.405 112.071C120.89 112.706 120.382 113.176 119.875 113.471C119.367 113.766 118.814 113.978 118.201 114.076L116.814 112.956C117.231 112.964 117.648 112.911 118.072 112.782C118.489 112.661 118.898 112.472 119.276 112.214C119.663 111.957 120.019 111.624 120.352 111.216C120.814 110.648 121.095 110.005 121.201 109.286C121.307 108.567 121.223 107.855 120.966 107.144C120.701 106.433 120.231 105.805 119.557 105.26C118.89 104.722 118.178 104.389 117.421 104.283V104.276Z" fill="#A97F2A"/>
<path class="svg-elm svg-path svg-path27" d="M108.447 116.808L101.879 115.136L103.159 114.069L109.606 115.839L108.447 116.808ZM113.712 119.775L106.583 111.223L107.621 110.36L114.749 118.912L113.712 119.775ZM114.174 119.389L112.424 120.842C111.871 121.303 111.287 121.614 110.681 121.765C110.075 121.924 109.477 121.916 108.901 121.742C108.326 121.568 107.818 121.22 107.379 120.698C106.947 120.176 106.697 119.616 106.629 119.018C106.56 118.42 106.659 117.83 106.924 117.262C107.189 116.695 107.598 116.18 108.151 115.718L109.901 114.265L110.666 115.181L108.916 116.634C108.553 116.937 108.28 117.27 108.106 117.641C107.932 118.004 107.871 118.375 107.916 118.753C107.962 119.131 108.129 119.495 108.424 119.843C108.719 120.191 109.045 120.425 109.409 120.539C109.772 120.652 110.151 120.652 110.538 120.554C110.924 120.448 111.303 120.244 111.674 119.941L113.424 118.488L114.189 119.404L114.174 119.389Z" fill="#A97F2A"/>
<path class="svg-elm svg-path svg-path28" d="M103.425 123.589C103.5 124.33 103.425 125.049 103.22 125.746C103.008 126.434 102.667 127.07 102.19 127.653C101.713 128.228 101.122 128.705 100.41 129.083C99.69 129.461 98.9552 129.681 98.2128 129.741C97.4704 129.802 96.7583 129.719 96.069 129.507C95.3796 129.287 94.7509 128.939 94.1751 128.455C93.607 127.97 93.1297 127.365 92.751 126.646C92.3722 125.935 92.1525 125.201 92.0768 124.451C92.001 123.702 92.0692 122.983 92.2813 122.287C92.4934 121.598 92.8343 120.963 93.304 120.388C93.7737 119.812 94.3721 119.336 95.0918 118.957C95.8038 118.579 96.5386 118.367 97.281 118.299C98.0234 118.238 98.7431 118.314 99.4324 118.534C100.122 118.753 100.758 119.109 101.326 119.593C101.902 120.077 102.372 120.683 102.75 121.394C103.129 122.113 103.356 122.847 103.432 123.596L103.425 123.589ZM99.9476 120.327C99.3188 119.918 98.6294 119.691 97.8946 119.646C97.1522 119.601 96.425 119.767 95.7129 120.145C94.9933 120.524 94.4403 121.031 94.0539 121.659C93.6752 122.287 93.4706 122.983 93.4555 123.733C93.4403 124.482 93.6221 125.231 94.0161 125.973C94.4024 126.714 94.9175 127.289 95.5463 127.698C96.175 128.107 96.8568 128.334 97.5916 128.379C98.3264 128.425 99.0612 128.258 99.7809 127.88C100.493 127.501 101.046 127.002 101.432 126.366C101.819 125.73 102.023 125.042 102.038 124.285C102.053 123.528 101.872 122.787 101.478 122.045C101.091 121.303 100.576 120.728 99.9476 120.319V120.327Z" fill="#A97F2A"/>
<path class="svg-elm svg-path svg-path29" d="M88.8442 133.692L86.0564 124.24L81.8597 125.473L81.4961 124.255L86.9882 122.635L90.1396 133.306L88.8442 133.684V133.692Z" fill="#A97F2A"/>
<path class="svg-elm svg-path svg-path30" d="M78.7627 136L77.437 126.238L73.1039 126.828L72.9297 125.564L78.6036 124.792L80.1035 135.818L78.7627 136Z" fill="#A97F2A"/>
</g>
<defs>
<clipPath id="clip0_8781_2958">
<rect class="svg-elm svg-rect svg-rect01" width="137" height="136" fill="white"/>
</clipPath>
</defs>
</svg>
